<?xml version="1.0"?>
<svg width="26" height="26" xmlns="http://www.w3.org/2000/svg" xmlns:svg="http://www.w3.org/2000/svg">
 <g class="layer">
  <title>Layer 1</title>
  <g id="SVGRepo_bgCarrier" stroke-width="0"/>
  <g id="SVGRepo_tracerCarrier" stroke-linecap="round" stroke-linejoin="round"/>
  <g id="SVGRepo_iconCarrier">
   <path clip-rule="evenodd" d="m7.17,7.86c0,-1.98 1.61,-3.6 3.6,-3.6c1.98,0 3.6,1.61 3.6,3.6s-1.61,3.6 -3.6,3.6c-1.98,0 -3.6,-1.61 -3.6,-3.6zm3.6,-5.25c-2.9,0 -5.25,2.36 -5.25,5.25s2.36,5.25 5.25,5.25c2.9,0 5.25,-2.36 5.25,-5.25s-2.36,-5.25 -5.25,-5.25zm-6.29,17.85c1.1,-2.38 3.51,-4.04 6.29,-4.04c2.78,0 5.19,1.66 6.29,4.04c0.23,0.51 0.12,0.96 -0.21,1.35c-0.35,0.4 -0.96,0.7 -1.66,0.7l-8.84,0c-0.7,0 -1.31,-0.3 -1.66,-0.7c-0.33,-0.39 -0.44,-0.84 -0.21,-1.35l0.01,0zm6.29,-5.7c-3.46,0 -6.45,2.06 -7.79,5.02c-0.53,1.16 -0.24,2.3 0.47,3.11c0.68,0.8 1.77,1.27 2.9,1.27l8.84,0c1.14,0 2.22,-0.47 2.9,-1.27c0.7,-0.8 1,-1.96 0.47,-3.11c-1.35,-2.95 -4.33,-5.02 -7.79,-5.02l-0.01,0zm8.84,-5.52c0.45,0 0.82,0.39 0.82,0.82l0,2.48l2.48,0c0.45,0 0.82,0.39 0.82,0.82s-0.39,0.82 -0.82,0.82l-2.48,0l0,2.48c0,0.45 -0.39,0.82 -0.82,0.82s-0.82,-0.39 -0.82,-0.82l0,-2.48l-2.48,0c-0.45,0 -0.82,-0.39 -0.82,-0.82s0.39,-0.82 0.82,-0.82l2.48,0l0,-2.48c0,-0.45 0.39,-0.82 0.82,-0.82z" fill="#ffffff" fill-rule="evenodd" id="svg_1"/>
  </g>
 </g>
</svg>