<?xml version="1.0"?>
<svg width="32" height="32" xmlns="http://www.w3.org/2000/svg" xmlns:svg="http://www.w3.org/2000/svg">
 <g class="layer">
  <title>Layer 1</title>
  <g id="svg_3">
   <g id="SVGRepo_bgCarrier" stroke-width="0"/>
   <g id="SVGRepo_tracerCarrier" stroke-linecap="round" stroke-linejoin="round"/>
   <path d="m23.64,19.59c-0.53,0.53 -0.53,1.39 0,1.92c0.53,0.53 1.39,0.53 1.92,0l3.93,-3.94c0.03,-0.01 0.04,-0.04 0.05,-0.05c0.28,-0.26 0.46,-0.61 0.46,-1.01c0,-0.4 -0.18,-0.76 -0.46,-1.01c-0.01,-0.01 -0.03,-0.04 -0.05,-0.05l-3.93,-3.94c-0.53,-0.53 -1.39,-0.53 -1.92,0c-0.53,0.53 -0.53,1.39 0,1.92l1.75,1.74l-7.55,0c-0.74,0 -1.35,0.61 -1.35,1.35c0,0.74 0.61,1.35 1.35,1.35l7.55,0l-1.75,1.74z" fill="#ffffff" id="svg_1"/>
   <path d="m7.05,3c-2.24,0 -4.05,1.81 -4.05,4.05l0,18.9c0,2.24 1.81,4.05 4.05,4.05l12.82,0c1.86,0 3.37,-1.51 3.37,-3.37l0,-3.74c-0.2,-0.11 -0.39,-0.26 -0.55,-0.43c-0.89,-0.88 -1.03,-2.23 -0.43,-3.25l-4.41,0c-1.48,0 -2.7,-1.21 -2.7,-2.7c0,-1.48 1.21,-2.7 2.7,-2.7l4.41,0c-0.59,-1.03 -0.46,-2.38 0.43,-3.25c0.16,-0.18 0.35,-0.32 0.55,-0.43l0,-3.74c0,-1.86 -1.51,-3.37 -3.37,-3.37l-12.82,0z" fill="#ffffff" id="svg_2"/>
  </g>
 </g>
</svg>