<svg xmlns="http://www.w3.org/2000/svg" xmlns:xlink="http://www.w3.org/1999/xlink" width="66" height="66" version="1.1" preserveAspectRatio="xMidYMid" fill="#000000" style=""><rect id="backgroundrect" width="100%" height="100%" x="0" y="0" fill="none" stroke="none" class="" style=""/>







<g class="currentLayer" style=""><title>Layer 1</title><g id="SVGRepo_bgCarrier" stroke-width="0" class=""/><g id="SVGRepo_tracerCarrier" stroke-linecap="round" stroke-linejoin="round" class=""/><g id="SVGRepo_iconCarrier" class="selected"> <g id="svg_1"> <path d="M32.552514868190585,61.72382682544224 C17.48544755365723,61.61990671987167 4.384632466613146,49.11544299746674 4.486184500765054,33.22860204865046 C4.583819097312687,17.942088757465505 17.28686361843924,5.071645151827339 33.00543099601311,5.17586658705175 C48.281930604504005,5.277377059989312 61.17030002422462,17.957752087649713 61.033792518841985,33.49277019136394 C61.160355746922335,48.8868185001368 48.208403301140166,61.83256665171248 32.552514868190585,61.72382682544224 zM32.552514868190585,61.72382682544224 C17.48544755365723,61.61990671987167 4.384632466613146,49.11544299746674 4.486184500765054,33.22860204865046 C4.583819097312687,17.942088757465505 17.28686361843924,5.071645151827339 33.00543099601311,5.17586658705175 C48.281930604504005,5.277377059989312 61.17030002422462,17.957752087649713 61.033792518841985,33.49277019136394 C61.160355746922335,48.8868185001368 48.208403301140166,61.83256665171248 32.552514868190585,61.72382682544224 z" fill="#FFFFFF" id="svg_2"> </path> <path d="M32.58012394427524,57.968691618147226 C19.51364939902535,57.878553850613 8.153261902034167,47.03467332720953 8.241331578862727,33.25800877297995 C8.32609489062264,20.001439177183972 19.342018722999153,8.84027358394063 32.97298077235734,8.931012319994737 C46.220404031961245,9.0190469186049 57.39713752849746,20.01556076665488 57.27870944290427,33.487259288388756 C57.38842076794335,46.83667070080465 46.15698181788324,58.06303590024599 32.58012394427524,57.968691618147226 zM32.58012394427524,57.968691618147226 C19.51364939902535,57.878553850613 8.153261902034167,47.03467332720953 8.241331578862727,33.25800877297995 C8.32609489062264,20.001439177183972 19.342018722999153,8.84027358394063 32.97298077235734,8.931012319994737 C46.220404031961245,9.0190469186049 57.39713752849746,20.01556076665488 57.27870944290427,33.487259288388756 C57.38842076794335,46.83667070080465 46.15698181788324,58.06303590024599 32.58012394427524,57.968691618147226 z" fill="#49A32B" id="svg_3"> </path> <path d="M41.88925465775531,33.440188648859234 C41.826388658752315,34.60877310653831 40.80549388259865,35.579134484021864 39.79933814324619,35.40978753696828 C39.794525491205135,35.40978753696828 39.78941197938164,35.40978753696828 39.78429846755812,35.40978753696828 C38.66985662146049,35.41129161498487 37.76536917811754,34.50890952743224 37.764165959883385,33.394467902230176 C37.80206611933375,32.27701812099491 38.72881232687415,31.396293519866006 39.84656274699626,31.415243489143403 C40.961004372198325,31.420657639853758 41.949413581403135,32.362443743977785 41.88925465775531,33.440188648859234 zM23.9688515230243,44.764179755162814 C24.389060724435428,44.77651213460011 24.80957069727076,44.76748832918727 25.294149821074566,44.76748832918727 L25.294149821074566,47.81272676638747 C22.28229966270789,48.32197082578236 19.801350873443365,47.46681356287536 19.192543851739718,44.92089324210107 C18.984093615359836,43.9848223693654 18.85595537969155,43.03250860270752 18.809031525276126,42.07447982555686 C18.744360809369677,41.06020263924328 18.856256173205306,40.03449499015297 18.778952129720892,39.02202252074285 C18.564786816579563,36.23606866673332 18.203834025737613,35.2849581183096 15.530377100501672,35.15321025002838 L15.530377100501672,31.685958093319638 C15.721982878021365,31.64113970514231 15.91629577507535,31.60805241862859 16.111811868273932,31.58609451421357 C17.577580958146264,31.51390385001531 18.1954118073523,31.06451763359022 18.523277245411837,29.620706558580704 C18.672471049132966,28.80946510450373 18.760904496805665,27.988297486562185 18.787073554592443,27.16382127250663 C18.903180049710286,25.56961317554181 18.86197127205633,23.94953677012486 19.127572342319507,22.381196937433057 C19.511385484386413,20.11321030934439 20.919402109168807,19.011401945451617 23.24514120234741,18.888076406003503 C23.906887970831264,18.852582727200563 24.570740271821887,18.882662122755804 25.320619694464675,18.882662122755804 L25.320619694464675,21.995278262859387 C25.012005063375405,22.017236211453508 24.72925871864873,22.06205453336216 24.44831713500461,22.053632292887293 C22.55301424479456,21.995579056373142 22.454955404681513,22.64108295302433 22.31659016745579,24.210024372743653 C22.230262296468972,25.193921480436018 22.349376704634867,26.19466306907812 22.28229966270789,27.181868927511417 C22.21221466355374,28.16426202345586 22.08076767714452,29.14154162966636 21.888861128200624,30.107692074673714 C21.61543938240054,31.507887979740083 20.754567020642526,32.54923680318774 19.561618067453203,33.43296956034985 C21.877430952588142,34.93994727324922 22.140926490344548,37.28162842265717 22.291323468120723,39.65940501461205 C22.372237055859838,40.93717771659248 22.335239387398534,42.22397444488131 22.464881612725186,43.49543063769965 C22.56594838797585,44.48233576888786 22.949761507953202,44.73410018289111 23.9688515230243,44.764179755162814 zM25.920703682179685,31.415243489143403 C25.932735444819695,31.415243489143403 25.944466413945936,31.415243489143403 25.95649815449638,31.415243489143403 C27.063720889995093,31.433591959751514 27.946851927592313,32.34589999027313 27.92850345698421,33.453423386748256 C27.92850345698421,33.48981946818203 27.92730023875005,33.52591491072896 27.925194882959737,33.562010132380294 C27.862930382626036,34.64426682952036 26.93528181663392,35.47084881906783 25.853025031135626,35.40858431873413 C25.809409905371577,35.40948667718585 25.766095573121294,35.40858431873413 25.722480447357245,35.40647874204824 C24.620371289950715,35.35173441090194 23.771229875229388,34.413858600367234 23.825974383092156,33.311749575498055 C23.880718890954928,32.20964032973329 24.818594524773147,31.36049893710152 25.920703682179685,31.415243489143403 zM32.82061694032066,31.415243489143403 C34.03161334970875,31.405918823948134 34.83593657505878,32.19069036045589 34.84225330511644,33.38785031239008 C34.84887067406095,34.61719541328184 34.08635790175064,35.40377166669305 32.88318207954124,35.408885178516556 C31.659551989142237,35.414299550122486 30.85402576645363,34.64035653593101 30.847408397509124,33.45041545161064 C30.84379874280664,33.38965525018911 30.842896384354912,33.328894827872006 30.844701101258366,33.26813440555489 C30.878690967119404,32.21084354796745 31.763326082733222,31.38125362328237 32.82061694032066,31.415243489143403 zM47.26715021805505,29.898640251266322 C47.58930057935312,31.101816073475735 48.21645604957532,31.524732372331595 49.483099590352595,31.582484859511094 C49.69064755663898,31.592110384488798 49.89729294357806,31.627303247688413 50.181844005208184,31.65888667708113 L50.181844005208184,35.12523647533816 C50.027837593625115,35.17576987400827 49.86992066755711,35.21366981256307 49.70959752591638,35.23833501322883 C48.012217099104554,35.343913602827676 47.238574944695536,36.04025180211053 47.067122420956075,37.74214402118096 C46.95763331687228,38.82861187169281 46.966657122285135,39.92711168365067 46.891458743844844,41.01748982775184 C46.85987531445212,42.214649779686034 46.75098792993322,43.408501157595765 46.565397868061844,44.59152401318919 C46.132254545558986,46.734981861506036 44.794022281043894,47.80430445964394 42.58288556078741,47.93484910969097 C41.871207046929634,47.97696020161754 41.15441502124837,47.9414664786355 40.387089596897006,47.9414664786355 L40.387089596897006,44.84328842719244 C40.800079731888296,44.817721088970536 41.16464204489539,44.78252800487533 41.53010671635419,44.77380505924494 C42.851193949390904,44.74222162985223 43.31832691685921,44.31629739585875 43.382997632765665,43.00423396823485 C43.454586577399056,41.56282932969365 43.48586914700934,40.11961975335341 43.550239003133356,38.67791425502978 C43.64378607307734,36.594013389900304 44.2143922743542,34.732399527858405 46.155716527990585,33.432668700567405 C45.04488433659541,32.640678075550255 44.15303013247221,31.68144608016543 43.92202040464981,30.388031982932077 C43.642582854843184,28.82029384771559 43.552344579819234,27.217964193341878 43.40194760204306,25.62826799908348 C43.32765158205449,24.83357029871116 43.331261015861394,24.031954325432775 43.25365620095277,23.23785821208797 C43.17003551576893,22.38059535040554 42.58108084388396,22.084012481956286 41.80082132053041,22.06476167498601 C41.353841319678075,22.053933086401045 40.90505682281786,22.06265612038968 40.33354826308928,22.06265612038968 L40.33354826308928,19.037270231814194 C43.980374390498596,18.43177193876192 46.49952415481682,19.64517487297655 46.73354181777684,23.134385066637655 C46.83160067997945,24.599552569482462 46.817162502960684,26.07163832314377 46.91101021179151,27.536805914346807 C46.95221894526635,28.333909830291866 47.07133335343226,29.124998096857286 47.26715021805505,29.898640251266322 z" fill="#FFFFFF" id="svg_4"> </path> </g> </g></g></svg>