<svg xmlns="http://www.w3.org/2000/svg" fill="#2A272C" width="32" height="32" stroke="#2A272C" style=""><rect id="backgroundrect" width="100%" height="100%" x="0" y="0" fill="none" stroke="none"/>







<g class="currentLayer" style=""><title>Layer 1</title><g class="selected" id="svg_2" transform="rotate(37.00407791137695 15.877551078796383,15.877552032470703) " fill="#484848" fill-opacity="1" stroke="#484848" stroke-opacity="1"><g id="SVGRepo_bgCarrier" stroke-width="0" class="" fill="#484848" fill-opacity="1" stroke="#484848" stroke-opacity="1"/><g id="SVGRepo_tracerCarrier" stroke-linecap="round" stroke-linejoin="round" class="" fill="#484848" fill-opacity="1" stroke="#484848" stroke-opacity="1"/><g id="SVGRepo_iconCarrier" class="" fill="#484848" fill-opacity="1" stroke="#484848" stroke-opacity="1"> <path d="M15.877550758421421,1.3877551555633545 c-7.99021670794487,0 -14.489795684814453,6.499578976869583 -14.489795684814453,14.489795684814453 s6.499578976869583,14.489795684814453 14.489795684814453,14.489795684814453 c7.99021670794487,0 14.489795684814453,-6.499578976869583 14.489795684814453,-14.489795684814453 s-6.499578976869583,-14.489795684814453 -14.489795684814453,-14.489795684814453 zM15.877550758421421,2.770625031232834 c7.240369781255722,0 13.106925809144974,5.8674616401195525 13.106925809144974,13.106925809144974 s-5.8674616401195525,13.106925809144974 -13.106925809144974,13.106925809144974 c-7.240369781255722,0 -13.106925809144974,-5.8674616401195525 -13.106925809144974,-13.106925809144974 s5.8674616401195525,-13.106925809144974 13.106925809144974,-13.106925809144974 zM11.49529317599535,8.472359633207322 c-0.1702550992965699,-0.004528061151504521 -0.339604586362839,0 -0.5143877468109127,0.004528061151504521 c-1.1836351850032807,0.07154336619377134 -1.8954463980197906,0.6275892755985266 -2.0937754764556886,1.7786224203109744 c-0.13674744677543657,0.8069004971981054 -0.113201528787613,1.6264795656204227 -0.1702550992965699,2.4379081239700318 c-0.01811224460601807,0.42020407485961936 -0.06067601943016059,0.840408149719238 -0.14127550792694088,1.2497448778152467 c-0.16029336476325995,0.7362627432346345 -0.4754464209079744,0.9671938619613646 -1.2252933475971224,1.0043239634037018 c-0.10052295756340032,0.00996173453330994 -0.19923469066619887,0.028979591369628927 -0.2934183626174929,0.05161989712715156 v1.7641326246261597 c1.358418345451355,0.06610969281196596 1.5431632404327393,0.5478953993320466 1.6509310958385468,1.966989764213562 c0.04346938705444339,0.5189158079624177 -0.01358418345451356,1.0387372281551361 0.019017856836318976,1.556747423887253 c0.024451530218124417,0.4917474410533904 0.08965561079978951,0.9771555964946746 0.1883673439025879,1.4489795684814455 c0.31153060722351095,1.2968367137908938 1.5802933418750764,1.7306249721050266 3.108966786623001,1.470714262008667 v-1.5513137505054475 c-0.24632652664184568,0 -0.4627678496837616,0.004528061151504521 -0.6701530504226686,0 c-0.5243494813442231,-0.014489795684814464 -0.7172448863983159,-0.14580356907844547 -0.7643367223739624,-0.6457015202045446 c-0.07154336619377134,-0.6457015202045446 -0.05161989712715156,-1.3013647749423982 -0.08965561079978951,-1.9524999685287476 c-0.08059948849678045,-1.2126147763729096 -0.21281887412071235,-2.400778022527695 -1.3955484468936918,-3.1696428060531616 c0.6085714187622072,-0.4482780539989474 1.0514157993793487,-0.9816836576461797 1.1881632461547853,-1.6889668095111854 c0.0987117331027985,-0.4953698899745944 0.16029336476325995,-0.9952678411006926 0.19832907843589795,-1.4951657922267916 s-0.0226403057575226,-1.0142856979370118 0.019017856836318976,-1.509655587911606 c0.06973214173316965,-0.8014668238162993 0.12225765109062196,-1.1311096756458283 1.0840178396701814,-1.0985076353549958 c0.14580356907844547,0 0.28707907700538654,-0.019017856836318976 0.4482780539989474,-0.03260204029083255 v-1.5802933418750764 c-0.19289540505409253,0 -0.3722066266536713,-0.004528061151504521 -0.5469897871017455,-0.00996173453330994 zM20.665522620022298,8.486849428892135 c-0.33054846405983,-0.00996173453330994 -0.6601913158893586,0.014489795684814464 -0.9862117187976834,0.07154336619377134 v1.5368239548206328 c0.2979464237689973,0 0.5288775424957276,0 0.7543749878406525,0.004528061151504521 c0.3975637691020969,0.004528061151504521 0.6991326417922974,0.16029336476325995 0.7362627432346345,0.5986096842288978 c0.03713010144233707,0.4011862180233003 0.03713010144233707,0.8069004971981054 0.075165815114975,1.2126147763729096 c0.08059948849678045,0.8114285583496096 0.12316326332092292,1.6264795656204227 0.264438771247864,2.424323940515518 c0.12316326332092292,0.655663254737854 0.5759693784713746,1.1455994713306428 1.1365433490276335,1.5513137505054475 c-0.9853061065673827,0.6601913158893586 -1.2778188569545745,1.6083673210144043 -1.3249106929302221,2.6742729160785688 c-0.028979591369628927,0.7253953964710238 -0.047091835975647006,1.462563751935959 -0.08422193741798409,2.1979208829402923 c-0.033507652521133455,0.6701530504226686 -0.2689668323993684,0.8865943734645849 -0.9445535562038423,0.9010841691493986 c-0.1883673439025879,0.00996173453330994 -0.3722066266536713,0.024451530218124417 -0.5795918273925786,0.03713010144233707 v1.575765280723572 c0.3912244834899905,0 0.7543749878406525,0.024451530218124417 1.1184311044216158,0 c1.1220535533428193,-0.06610969281196596 1.8066963994503022,-0.6130994799137119 2.0276657836437226,-1.707079054117203 c0.09418367195129407,-0.5986096842288978 0.15123724246025097,-1.2071811029911044 0.16572703814506545,-1.815752521753311 c0.03713010144233707,-0.5569515216350557 0.03260204029083255,-1.1184311044216158 0.08965561079978951,-1.6699489526748668 c0.08422193741798409,-0.8630484554767611 0.48178570652008057,-1.2216708986759188 1.3439285497665407,-1.2778188569545745 c0.08059948849678045,-0.00996173453330994 0.16029336476325995,-0.028979591369628927 0.2417984654903413,-0.05161989712715156 v-1.7686606857776639 c-0.14580356907844547,-0.019017856836318976 -0.24542091441154484,-0.033507652521133455 -0.3540943820476534,-0.03713010144233707 c-0.6457015202045446,-0.028979591369628927 -0.9671938619613646,-0.24632652664184568 -1.13292090010643,-0.8585203943252564 c-0.0987117331027985,-0.3921300957202913 -0.16029336476325995,-0.7933163137435916 -0.17840560936927805,-1.199030592918396 c-0.047091835975647006,-0.7453188655376435 -0.04256377482414249,-1.499693853378296 -0.08965561079978951,-2.2450127189159392 c-0.0987117331027985,-1.4381122217178346 -0.9626658008098604,-2.1182270066738127 -2.278520371437073,-2.1553571081161502 zM12.344757448017598,14.858737081289291 c-1.2968367137908938,0 -1.3910203857421874,1.9099361937046049 -0.10414540648460394,2.033099457025528 h0.07154336619377134 c0.55151784825325,0.03260204029083255 1.0242474324703217,-0.3866964223384859 1.0568494727611542,-0.9391198828220365 v-0.055242346048355144 c0.00996173453330994,-0.5614795827865602 -0.4383163194656374,-1.0287754936218263 -0.9997959022521977,-1.0387372281551361 zM15.858532901585102,14.858737081289291 c-0.5370280525684362,-0.01811224460601807 -0.9898341677188873,0.405714279174805 -1.0097576367855072,0.9445535562038423 c0,0.03260204029083255 0,0.06067601943016059 0.004528061151504521,0.09418367195129407 c0,0.6085714187622072 0.41567601370811474,0.9952678411006926 1.0387372281551361,0.9952678411006926 c0.6130994799137119,0 0.9997959022521977,-0.4011862180233003 0.9997959022521977,-1.0287754936218263 c-0.004528061151504521,-0.6085714187622072 -0.41567601370811474,-1.0097576367855072 -1.0333035547733307,-1.0043239634037018 zM19.433889986813067,14.858737081289291 c-0.5651020317077634,-0.00996173453330994 -1.0369260036945342,0.43922193169593826 -1.0568494727611542,1.0097576367855072 c0,0.5660076439380647 0.4573341763019563,1.0242474324703217 1.0287754936218263,1.0242474324703217 h0.00996173453330994 c0.513482134580612,0.08965561079978951 1.0278698813915252,-0.405714279174805 1.0613775339126585,-0.9997959022521977 c0.028073979139328024,-0.55151784825325 -0.47182397198677095,-1.0333035547733307 -1.0432652893066408,-1.0333035547733307 z" id="svg_1" fill="#484848" fill-opacity="1" stroke="#484848" stroke-opacity="1"/> </g></g></g></svg>