<svg xmlns="http://www.w3.org/2000/svg" xmlns:xlink="http://www.w3.org/1999/xlink" width="288" height="288" version="1.1" preserveAspectRatio="xMidYMid" fill="#837c7c" stroke="#837c7c" style=""><rect id="backgroundrect" width="100%" height="100%" x="0" y="0" fill="none" stroke="none"/>







<g class="currentLayer" style=""><title>Layer 1</title><g class="" transform="rotate(-11.451828956604004 143.30053710937514,144.3682708740235) "><g id="SVGRepo_bgCarrier" stroke-width="0" class=""/><g id="SVGRepo_tracerCarrier" stroke-linecap="round" stroke-linejoin="round" class=""/><g id="SVGRepo_iconCarrier" class=""> <g fill-rule="evenodd" id="svg_1"> <path d="M167.87654069244385,33.50989335192948 L227.02260369244385,67.65889075192948 C228.68804869244386,65.89477705192948 230.63340469244386,64.33715615192948 232.84027969244386,63.05531885192947 C245.10700269244384,56.00378935192948 260.75258369244386,60.190634951929475 267.87756669244385,72.45735815192947 C274.92909569244387,84.72408135192947 270.74225069244386,100.36966235192948 258.47552769244385,107.49464505192947 C256.2855196924438,108.75357205192947 253.98547469244386,109.65428805192947 251.64435769244386,110.21476805192947 L251.64435769244386,178.53946805192948 C253.96012769244385,179.10113105192949 256.23497469244387,179.9961340519295 258.4020736924439,181.24189105192949 C270.74225069244386,188.36687405192947 274.92909569244387,204.01245505192946 267.8041136924438,216.27917805192948 C260.75258369244386,228.54590105192946 245.03354969244384,232.73274705192946 232.76682569244386,225.68121805192948 C230.32465069244384,224.27733205192948 228.20273469244384,222.52989705192948 226.42600169244386,220.53455105192947 L167.64070769244384,254.47525105192946 C168.48106469244385,257.01452805192946 168.93579369244384,259.73075805192946 168.93579369244384,262.5548410519295 C168.93579369244384,276.65790005192946 157.47705769244385,288.1900880519295 143.30054569244385,288.1900880519295 C129.12403369244385,288.1900880519295 117.66529769244384,276.7313530519295 117.66529769244384,262.5548410519295 C117.66529769244384,260.03492905192945 118.02734769244385,257.60088905192947 118.70235569244385,255.30181005192946 L59.57203439244385,221.16190205192947 C57.924371392443845,222.89137805192948 56.005939692443846,224.41982605192948 53.834265292443845,225.68121805192948 C41.49408869244385,232.73274705192946 25.848507692443846,228.54590105192946 18.796978172443847,216.27917805192948 C11.745448682443847,204.01245505192946 15.932294313443847,188.36687405192947 28.199017492443847,181.24189105192949 C30.367885392443846,179.99511705192947 32.642381292443844,179.09967005192948 34.95673329244384,178.53809405192948 L34.95673329244384,110.21476805192947 C32.61561709244385,109.65428805192947 30.31557139244385,108.75357205192947 28.125564092443845,107.49464505192947 C15.858840881443848,100.44311575192947 11.671995252443848,84.72408135192947 18.72352473244385,72.45735815192947 C25.775054192443847,60.190634951929475 41.49408869244385,56.00378935192948 53.76081189244385,63.05531885192947 C55.95568309244385,64.33018415192947 57.891872592443846,65.87784115192947 59.55128699244385,67.63012365192948 L118.71330569244385,33.47191445192947 C118.03126369244384,31.161901251929475 117.66529769244384,28.715198351929473 117.66529769244384,26.181695851929476 C117.66529769244384,12.005183451929474 129.12403369244385,0.5464480519294739 143.30054569244385,0.5464480519294739 C157.47705769244385,0.5464480519294739 168.93579369244384,12.005183451929474 168.93579369244384,26.181695851929476 C168.93579369244384,28.729087351929476 168.56580369244384,31.188724851929475 167.87654069244385,33.50989335192948 zM161.71418369244384,44.031319351929476 L221.00110069244386,78.26164105192947 C219.16844469244384,84.69813685192948 219.84106069244385,91.83501185192948 223.43823969244386,98.09260595192947 C227.04714669244385,104.37059905192947 232.92632869244386,108.53223305192948 239.45108869244385,110.15410205192947 L239.45108869244385,178.56429005192948 C239.11857769244384,178.64591105192946 238.78772569244384,178.73412205192946 238.45874669244384,178.82886705192948 L161.02583569244385,44.71506625192947 C161.25956269244384,44.491494951929475 161.48905569244386,44.26353565192947 161.71418369244384,44.031319351929476 zM125.59147569244385,44.73056835192948 L48.159873592443844,178.84210405192948 C47.825104692443844,178.74488805192948 47.48840679244385,178.65446305192947 47.150002992443845,178.57088605192948 L47.150002992443845,110.15410205192947 C53.67476249244385,108.53223305192948 59.553944892443845,104.37059905192947 63.162851192443846,98.09260595192947 C66.76714469244385,91.82263705192948 67.43529539244385,84.66990635192947 65.58908829244385,78.22346375192947 L124.85929269244384,44.002791451929475 C125.09845869244384,44.250249951929476 125.34257269244385,44.49289495192947 125.59147569244385,44.73056835192948 zM150.46329469244384,50.80621105192947 L227.87736269244385,184.88737605192946 C226.14478669244386,186.5392380519295 224.61792169244384,188.46399805192948 223.36478669244386,190.6439300519295 C222.11902969244386,192.81102905192947 221.22402669244386,195.0858770519295 220.66236369244385,197.40164605192948 L65.94010209244385,197.40164605192948 C65.37852549244386,195.08729405192946 64.48307899244385,192.81279805192946 63.23630459244385,190.6439300519295 C61.97821699244385,188.47794505192948 60.454470492443846,186.56387605192947 58.730575392443846,184.91911505192948 L136.15936669244385,50.81244735192947 C138.42548669244385,51.46653025192948 140.82146069244385,51.81694375192947 143.30054569244385,51.81694375192947 C145.78749769244385,51.81694375192947 148.19081069244385,51.46430275192947 150.46329469244384,50.80621105192947 zM162.25862969244386,245.2844430519295 L221.16065269244385,211.27634705192946 C220.98394369244386,210.72137205192948 220.82602869244386,210.16054405192946 220.68718569244385,209.5949160519295 L65.90730999244386,209.5949160519295 C65.82523449244385,209.9272400519295 65.73655409244384,210.25792005192946 65.64132489244385,210.58674305192946 L124.83232769244385,244.76168705192947 C129.49284369244384,239.92499305192948 136.04028469244383,236.91959305192947 143.30054569244385,236.91959305192947 C150.81892469244386,236.91959305192947 157.57289769244386,240.1424890519295 162.25862969244386,245.2844430519295 z" fill="#837c7c" id="svg_2"> </path> </g> </g></g></g></svg>