<svg xmlns="http://www.w3.org/2000/svg" width="66" height="66" fill="#000000" style=""><rect id="backgroundrect" width="100%" height="100%" x="0" y="0" fill="none" stroke="none" class="" style=""/>







<g class="currentLayer" style=""><title>Layer 1</title><g id="SVGRepo_bgCarrier" stroke-width="0" class=""/><g id="SVGRepo_tracerCarrier" stroke-linecap="round" stroke-linejoin="round" class=""/><g id="SVGRepo_iconCarrier" class=""> <path fill="#ffffff" d="M58.39899730595878,35.734414126263715 a24.74717178470879,24.74717178470879 0 0 1 -49.49434356941759,0 a3.0933964730885997,3.0933964730885997 0 0 1 6.186792946177198,0 a18.560378838531594,18.560378838531594 0 1 0 20.107077075075892,-18.498510909069825 V21.81412999736502 a1.4755501176632624,1.4755501176632624 0 0 1 -0.8352170477339217,1.3610944481589848 A1.4415227564592878,1.4415227564592878 0 0 1 33.651825521249975,23.36082823390932 a1.6085661660060717,1.6085661660060717 0 0 1 -0.8970849771956942,-0.2784056825779753 l-10.826887655810097,-7.733491182721498 a1.5621652189097437,1.5621652189097437 0 0 1 0,-2.536585107932652 l10.826887655810097,-7.733491182721498 a1.5095774788672363,1.5095774788672363 0 0 1 1.6085661660060717,-0.09280189419265818 a1.4755501176632624,1.4755501176632624 0 0 1 0.8352170477339217,1.3610944481589848 v4.7019626390946705 A24.70695763055864,24.70695763055864 0 0 1 58.39899730595878,35.734414126263715 z" id="svg_1"/> <path fill="#ffffff" d="M42.034929963320096,31.74393267597943 L36.745221994338586,37.03364064496093 V45.01460354552952 a3.0933964730885997,3.0933964730885997 0 0 1 -6.186792946177198,0 v-9.280189419265797 a2.134443566431135,2.134443566431135 0 0 1 0.12373585892354425,-0.7733491182721492 a1.1445566950427817,1.1445566950427817 0 0 1 0.12373585892354425,-0.4330755062324047 a3.056275715411536,3.056275715411536 0 0 1 0.649613259348608,-0.989886871388352 l6.186792946177198,-6.186792946177198 a3.105770058980954,3.105770058980954 0 0 1 4.392622991785812,4.392622991785812 z" id="svg_2"/> </g></g></svg>